<svg version="1" xmlns="http://www.w3.org/2000/svg" width="933.333" height="933.333" viewBox="0 0 700.000000 700.000000"><path d="M561.8 55.5c-.2.2-3 .5-6.4.8-30.1 2.8-63.5 23.2-88.5 54.3-8.4 10.4-20.5 28.6-28.7 42.9-6.1 10.7-19.5 39.3-23.5 50.5-4.9 13.4-12 37-11.4 37.6.2.3 3.5-1 7.3-2.7 10.1-4.5 10.4-4.6 16.4-6.3 15-4.1 33.8-6.8 47.9-7l8.4-.1 6.1-15.5c6.1-15.2 14-31.9 17.7-37.2 1.1-1.4 1.9-2.9 1.9-3.3 0-.4 1.7-3 3.7-5.9 2.1-2.8 4.1-5.6 4.5-6.1 1.8-2.5 11.4-13.2 13.7-15.3 13.3-12 21.6-15.9 35.3-16.9 21.8-1.5 39.9 10.9 47.4 32.5 1.3 3.8 2.7 9.1 3.1 11.8 1.1 7.4.7 30.1-.5 36.4-.7 3-1.4 7-1.7 8.9-.3 1.9-.8 3.7-1 4.1-.2.4-.7 2.2-1 4.1-1.9 10.7-10.3 35.6-17.5 51.9-15.3 34.7-33.5 59-52.1 69.7-10.6 6.1-25.9 8.7-36.9 6.2-8.3-1.8-17.6-7.4-23.7-14-6.4-7.1-12-22.3-12.2-33.7-.3-11.9-24.4-4.5-52.2 16l-7.6 5.6.8 6.9c4 33 17.5 54.7 43.9 70.4 16.3 9.7 26.3 13.4 46.5 17.5 6.9 1.4 28.2 1.3 36.5-.1 44.2-7.7 84.5-44.5 113.3-103.7 11.8-24.2 27.1-67.9 29.2-83.2l.9-4.5c.3-.9.8-3.6 1.1-6 .3-2.4.7-4.7.9-5 1.8-2.8 2.8-43.8 1.4-55.1-1.5-11.7-5-25.6-8.5-34-3-7.1-3.8-8.6-7.7-15.5-8.5-15-21.9-28.8-36.3-37.5-16.1-9.7-36.4-16.9-52.2-18.6-5.8-.6-18-1.2-18.3-.9z"/><path d="M469.8 231.6c-.2.1-4 .4-8.6.8-4.5.3-9.2.8-10.5 1.1-1.2.2-3.5.6-5.2.9-2.4.3-12.5 2.7-17 4-.5.1-2.9.8-5.3 1.5-6.1 1.7-18.6 6.7-26.2 10.6-13.8 6.9-21.3 11.7-36.9 23.5-19.3 14.6-30.3 24.6-29.7 26.9.3.9.8 4.1 1.1 7.1.3 3 .8 6.4 1 7.5.2 1.1.4 2.5.4 3.2.1 1.3.8.6 15.4-13.5 4.8-4.7 8.9-8.3 9.2-8 .3.2 0 2-.5 3.9-.6 1.9-1.2 4.5-1.5 5.9-.3 1.4-1.5 7.1-2.8 12.8-1.3 5.7-2.1 10.5-1.8 10.7.4.2 6-3 12.6-7.1 6.6-4 12.3-7.4 12.7-7.4.3 0-1.1 6.6-3.2 14.7s-3.7 14.9-3.5 15.2c.3.2 4.6-1.5 9.7-3.8 8.6-3.9 11-5.6 20.8-14.5 5.7-5.2 22-16.9 30-21.7 23.8-14.2 38.2-15.5 49.9-4.5 6.2 5.8 7.1 8.6 6.4 18.8l-.6 8.6 4.6 4.9c10.9 11.7 28 15.7 45.6 10.7l5.8-1.6 2.6-8.6c1.4-4.8 3-11.2 3.7-14.2 1.6-7.9 1.1-23.7-1.2-33.3-6.3-27.3-29.3-49-57.5-54.3-2.9-.6-19.1-1.3-19.5-.8zM295.8 336.2c-4.1 5.1-9 11.5-10.9 14.3-1.8 2.7-3.6 5.2-3.9 5.5-2.8 2.8-16.2 26.5-20.9 37-9.3 21-14 42.2-14.6 66.8-.8 31.7 5.5 49.2 21.5 60l4.4 3 7.3-5.9c7.6-6.2 14.4-12.7 17.8-16.9 8.3-10.2 11.9-24.2 7.8-30-1.4-1.9-1.8-4.4-1.7-10 0-6.7.4-8.4 4.1-16 11-22.4 24.1-43 40-62.3 3.6-4.3 6.3-8 6.1-8.2-.2-.2-2.8.5-5.8 1.6-6.6 2.3-6.2 2.3-5.6.1.2-.9.8-6 1.1-11.2.4-5.2.9-10.3 1.1-11.3.5-3.1.7-3.1-22.5 9.6-3.8 2-5.2 2.5-4.8 1.4.5-1.3 6.6-20.2 9.2-28.7.7-2.3.6-2.4-.9-1.1-1 .8-7 7.8-13.3 15.5-6.4 7.8-11.3 13.2-11 12.1.3-1.1 2.3-8 4.3-15.4 3.5-12.6 3.6-13.5 2.1-15.9-.8-1.5-2-2.8-2.5-3-.5-.1-4.3 3.9-8.4 9z"/><path d="M233.6 355.7c-.1.1-2.4.4-5.1.7-10.1 1.2-13.3 1.8-26 4.7-12.8 2.9-32.1 8.5-34 9.9-.5.4-2.4 1.1-4.2 1.5-1.8.3-5.5 1.7-8.3 3.1-2.7 1.3-5.3 2.4-5.7 2.4-2.6 0-39.6 18.4-51.2 25.4-31.3 19.1-57.1 44.3-70.8 69.4-5.5 10.2-10.6 24.1-12.6 34.7-2.9 15.5-.7 43.6 4.4 55 .4 1.1 1.8 4.5 2.9 7.6 9.1 25 29.9 48.7 53.3 60.5 23.6 12 60.4 16.8 91.2 11.9 6-1 9-1.5 11.3-2 1.2-.3 3.2-.7 4.5-1 10.4-2.2 27.6-6.7 32.2-8.5 1.1-.4 7.9-2.9 15-5.5 25.2-9.2 57.9-26 77.5-39.9 4.7-3.3 8.7-6.2 9-6.5.3-.3 2.8-2.4 5.5-4.6 5.6-4.4 21.8-20.5 25.2-25.1 7.2-9.4 9.7-13 14.2-20.8 7.7-13.4 12.7-27.8 14.9-42.6.4-2.5.7-11.3.6-19.5-.1-12-.6-16.7-2.3-23.5-4.1-15.6-12.7-31.2-23.6-42.8l-5.1-5.3-6.5 7.3c-9.5 10.6-19 23.5-22.1 29.8-4.5 9.3-5.8 16.2-5.7 30.5.1 14.5-1.5 21.7-7.4 33-13.8 26.4-77.5 63.7-129.7 75.9-14.3 3.4-16.6 3.7-31.5 4.1-12.2.4-15.2.1-24.9-2.4-12.6-3.2-24.3-12.8-30.1-24.5-4.2-8.5-4.9-11.5-4.9-21.6.1-9.4 3.1-18.8 8.7-27.2 4.4-6.6 17.6-20.5 24.2-25.3 2.2-1.7 4.2-3.2 4.5-3.6 2.6-3 20.9-13.8 34-20 35.5-16.9 64.2-26.2 84.3-27.3 2.6-.1 5.1-.6 5.6-1.2.6-.7 4-12 4.7-15.9 1-5.4 15.7-37.5 17.6-38.3.4-.2.8-.8.8-1.3s1.1-2.7 2.5-4.9 2.5-4.2 2.5-4.4c0-1.3-15.5-2.7-26.5-2.4-7 .2-12.7.4-12.9.5z"/><path d="M420.5 411.7c-15.6 18.5-21.8 24.9-31.7 32.6-7.5 5.8-7 4.2-4.9 17.4 2.6 16.4-1.8 40.3-10.5 57.5-1.4 2.7-2.4 5.2-2.2 5.3.6.6 20.6-7 27.6-10.4 3.4-1.7 6.4-3.1 6.6-3.1.8 0 18.3-10.7 24.4-14.9 3.5-2.4 10.1-7.3 14.5-10.9 15.9-12.8 53.7-52.2 53.7-56 0-2.4-1.9-4.2-4.4-4.2-4.2 0-24.2-7.6-35.1-13.2-7.4-3.9-10.4-5.9-17.7-12-3.1-2.7-5.8-4.8-6-4.8-.2 0-6.6 7.5-14.3 16.7z"/></svg>